<svg viewBox="0 0 165 38" fill="none" xmlns="http://www.w3.org/2000/svg"><path d="M1.34 28v-16.2h2.26v7.2h.84l2.9-7.2h2.26l-3.2 7.7 3.6 8.5h-2.26l-3.28-7.9h-.86v7.9h-2.26Zm9.28 0 3.44-16.2h2.18l3.46 16.2h-2.14l-.74-4.08h-3.3l-.78 4.08h-2.12Zm3.2-5.7h2.7l-1.36-7.3-1.34 7.3Zm8.78 5.7v-14.52h-2.74v-1.68h7.66v1.68h-2.66v14.52h-2.26Zm5.6 0 3.44-16.2h2.18l3.46 16.2h-2.14l-.74-4.08h-3.3l-.78 4.08h-2.12Zm3.2-5.7h2.7l-1.36-7.3-1.34 7.3Zm6.3 5.7v-1.68c.3.01.56 0 .8-.06.26-.05.48-.18.66-.38.2-.2.38-.51.52-.94.15-.43.28-1 .38-1.74.1-.73.2-1.66.28-2.78l.54-8.62h7.12v16.2h-2.26v-14.52h-2.92l-.38 6.94a45.83 45.83 0 0 1-.26 2.82c-.1.83-.26 1.55-.48 2.18-.2.61-.47 1.13-.82 1.54-.33.4-.76.69-1.28.86-.52.17-1.15.23-1.9.18Zm16.98.18a4.73 4.73 0 0 1-2.62-.64 3.5 3.5 0 0 1-1.4-1.82 8.47 8.47 0 0 1-.42-2.8v-6.14c0-1.07.14-1.98.42-2.74.3-.77.76-1.36 1.4-1.76a4.85 4.85 0 0 1 2.62-.62c1.1 0 1.96.2 2.6.62.64.41 1.1 1 1.38 1.76.3.76.44 1.67.44 2.74v6.16c0 1.05-.14 1.97-.44 2.76-.28.79-.74 1.4-1.38 1.84-.64.43-1.5.64-2.6.64Zm0-1.78c.6 0 1.06-.12 1.36-.36.31-.25.52-.6.62-1.04.11-.45.16-.98.16-1.58v-7.1c0-.6-.05-1.11-.16-1.54-.1-.44-.31-.77-.62-1-.3-.24-.76-.36-1.36-.36-.6 0-1.06.12-1.38.36-.3.23-.51.56-.62 1-.1.43-.16.94-.16 1.54v7.1c0 .6.06 1.13.16 1.58.11.44.32.79.62 1.04.32.24.78.36 1.38.36Zm6.64 1.6v-16.2h6.16v1.68h-3.9v14.52h-2.26Zm16.11.18c-.93 0-1.71-.2-2.34-.6a3.8 3.8 0 0 1-1.4-1.66 7 7 0 0 1-.56-2.46l2-.54c.04.57.13 1.13.26 1.66.15.53.38.97.7 1.32.32.33.77.5 1.34.5.59 0 1.03-.16 1.32-.48.3-.33.46-.8.46-1.42 0-.73-.17-1.32-.5-1.76-.33-.45-.75-.9-1.26-1.36l-2.72-2.4a4.61 4.61 0 0 1-1.18-1.52 4.99 4.99 0 0 1-.38-2.06c0-1.19.34-2.1 1.02-2.76.68-.65 1.6-.98 2.78-.98.64 0 1.2.09 1.68.26.5.16.9.41 1.22.76.33.35.6.79.78 1.32.2.52.33 1.13.4 1.84l-1.92.52a7.76 7.76 0 0 0-.24-1.46 2.1 2.1 0 0 0-.64-1.08c-.3-.28-.72-.42-1.28-.42s-1 .15-1.32.46c-.3.3-.46.73-.46 1.32 0 .5.08.9.24 1.22.17.32.45.65.82.98l2.74 2.4a8.47 8.47 0 0 1 1.62 1.92c.47.73.7 1.6.7 2.62 0 .8-.17 1.5-.5 2.08-.33.57-.8 1.01-1.38 1.32-.57.3-1.24.46-2 .46Zm5.63-.18v-16.2h2.26v14.58h4.14v1.62h-6.4Zm8.07 0v-16.2h2.22v16.2h-2.22Zm4.8 0 .3-16.2h2.22l2.86 13.14 2.88-13.14h2.2l.3 16.2h-1.82l-.18-11.76-2.74 11.76h-1.28l-2.72-11.76-.18 11.76h-1.84Z" fill="#000"/><path stroke="#000" stroke-width="2" d="M133 19h26"/><path d="m165 19-6.75 5.2v-10.4l6.75 5.2Z" fill="#000"/></svg>